# xmcd CD database file
#
# Track frame offsets:
#	150
#	12326
#	32172
#	44335
#	57055
#	73205
#	82994
#	99618
#	111320
#	122149
#	133487
#	149036
#	160244
#	173620
#	186618
#	199085
#
# Disc length: 2815 seconds
#
# Revision: 0
# Processed by: cddbd v1.5.2PL0 Copyright (c) Steve Scherf et al.
# Submitted via: CDex 1.70beta2
#
DISCID=f30afd10
DTITLE=Backwoodsmen, The  - Cdn. - Cty. - Brown Dirt Country Roads
DYEAR=1900
DGENRE=Country
TTITLE0=Brown Dirt Country Roads
TTITLE1=Lonesome Old Home
TTITLE2=Mother's White Rose
TTITLE3=Don't Let Your Sweet Love Die
TTITLE4=The Day You Went Away
TTITLE5=Pathway of Teardrops
TTITLE6=Flowers From Emily
TTITLE7=I'll Take The Blame
TTITLE8=Here Today and Gone Tomorrow
TTITLE9=You're No Longer A Sweetheart of Mine
TTITLE10=An Angel Is Waiting
TTITLE11=Wishful Thinkin
TTITLE12=Paradise, Smokey Mountain, Tennessee
TTITLE13=It's Gonna Be A Long, Long Night
TTITLE14=The Last Hank
TTITLE15=Cold Grey Tomb of Stone
EXTD=
EXTT0=
EXTT1=
EXTT2=
EXTT3=
EXTT4=
EXTT5=
EXTT6=
EXTT7=
EXTT8=
EXTT9=
EXTT10=
EXTT11=
EXTT12=
EXTT13=
EXTT14=
EXTT15=
PLAYORDER=
